<?xml version="1.0" encoding="UTF-8"?>
<svg id="Livello_1" data-name="Livello 1" xmlns="http://www.w3.org/2000/svg" viewBox="0 0 1622.05 357.61">
  <defs>
    <style>
      .cls-1 {
        stroke-width: 0px;
      }
    </style>
  </defs>
  <path class="cls-1" d="M177.56,357.61c-3.53-1.91-7.01-2.99-9.41-5.23-8.04-7.48-15.82-15.26-23.47-23.15-7-7.22-6.46-14.71,1.49-22.72,13.97-14.07,28.05-28.04,42.06-42.06,25.32-25.33,50.64-50.65,75.91-76.03,7.32-7.35,7.07-14.18-.79-22.05-36.13-36.2-72.31-72.35-108.48-108.52-3.3-3.3-6.76-6.46-9.83-9.96-5.99-6.8-5.7-14.55.69-20.98,7.39-7.44,14.86-14.8,22.38-22.11,6.46-6.28,13.87-6.49,20.33-.1,21.44,21.21,42.73,42.57,64.05,63.9,29.09,29.1,58.16,58.22,87.23,87.34,3.88,3.89,7.77,7.78,11.54,11.78,6.17,6.54,6.23,13.98-.1,20.37-21.22,21.42-42.52,42.77-63.83,64.11-25.19,25.23-50.41,50.43-75.63,75.64-8.13,8.12-16.13,16.39-24.5,24.24-2.51,2.36-6.11,3.56-9.64,5.54Z"/>
  <path class="cls-1" d="M549.95,118.18c9.08-9.01,18.78-14.03,30.06-16.16,31.45-5.94,62.78,9.5,76.64,38.78,14.27,30.16,12.74,59.74-5.72,87.85-18.74,28.53-55.66,38.74-86.4,23.93-5.01-2.41-9.34-6.23-14.58-9.81,0,2.8-.12,5.65.03,8.5.15,2.76-.94,3.96-3.72,3.95-12.66-.04-25.32-.04-37.98,0-2.76,0-4-1.15-3.74-3.93.08-.83,0-1.67,0-2.5,0-65.67,0-131.34,0-197.01q0-6.62,6.5-6.65c10.66-.01,21.32-.01,31.98,0q6.91,0,6.92,6.71c0,19.83,0,39.67,0,59.5,0,1.81,0,3.63,0,6.84ZM549.95,179.87c-.01,21.3,14.24,36.06,34.93,36.18,20.98.12,35.58-14.64,35.63-36.03.05-21.18-14.92-36.48-35.48-36.27-20.63.21-35.06,15.08-35.08,36.12Z"/>
  <path class="cls-1" d="M164.84,90.07c-2.43,4.02-3.94,8.02-6.69,10.81-21.62,21.97-43.47,43.71-65.25,65.53-8.79,8.81-8.8,15.61,0,24.43,20.94,20.99,41.91,41.96,62.85,62.96,9.58,9.6,9.55,15.86-.04,25.42-6.96,6.94-13.8,14.01-20.92,20.79-5.91,5.62-13.46,5.55-19.21-.2-36.89-36.86-73.74-73.78-110.53-110.74-6.84-6.87-6.69-14.1.17-20.99,25.98-26.08,52-52.1,78.01-78.15,10.71-10.72,21.38-21.49,32.13-32.16,7.27-7.22,14.4-7.17,21.76.09,7.24,7.14,14.6,14.17,21.5,21.63,2.55,2.76,3.94,6.61,6.22,10.58Z"/>
  <path class="cls-1" d="M1400.16,117.19q.66-12.28,12.85-12.28c9.33,0,18.66.13,27.98-.06,3.55-.07,5.02.82,5.01,4.71-.11,47.01-.11,94.01,0,141.02,0,3.99-1.72,4.71-5.1,4.68-11.66-.11-23.32-.19-34.98.04-4.36.09-6.14-1.32-5.6-5.74.27-2.24.05-4.54.05-7.74-11.68,11.87-25.41,17.21-40.87,17.46-29.72.48-51.05-13.63-65.22-39.2-19.41-35.03-9.47-82.23,21.69-105.95,24.03-18.3,63.35-18,82.9,2.51.2.21.57.25,1.3.55ZM1329.99,179.83c-.1,21.26,14.1,36.03,34.82,36.22,21.04.19,35.39-14.33,35.54-35.98.15-21.22-14-35.99-34.8-36.34-20.67-.35-35.47,14.67-35.57,36.1Z"/>
  <path class="cls-1" d="M1161.55,198.41c5.15,13.26,15.3,18.13,27.45,19.58,12.65,1.51,24.56-.54,34.62-9.3.81-.7,2.88-.89,3.83-.36,11.14,6.29,22.18,12.77,33.81,19.53-4.6,7.58-10.65,13.41-17.75,17.94-25.09,16.02-51.97,17.38-79.56,8.19-38.49-12.81-56.14-50.82-49.87-88.46,10.04-60.25,75.09-78.64,116.75-54.9,21.68,12.36,33.64,31.84,36.92,56.36,1.11,8.31.21,16.9.24,25.36.01,4.55-1.98,6.19-6.74,6.16-31.14-.2-62.29-.1-93.44-.1-1.82,0-3.63,0-6.26,0ZM1222.91,163.78c-2.72-14.52-15.81-23.04-33.78-22.36-15.23.57-26.75,11.05-27.97,22.36h61.74Z"/>
  <path class="cls-1" d="M762.71,100.82c45.09.15,79.4,34.91,79.25,80.26-.15,43.78-35.78,78.47-80.4,78.3-43.54-.17-78.97-36.04-78.74-79.71.24-44.19,35.52-79,79.9-78.85ZM728.8,179.99c0,20.56,13.63,34.67,33.6,34.84,19.63.16,33.9-14.37,34.01-34.63.11-20.58-13.96-35.03-34.05-34.97-20,.06-33.57,14.12-33.57,34.76Z"/>
  <path class="cls-1" d="M859.29,179.54c.16-44.48,35.01-78.9,79.69-78.72,44.53.18,79.35,35.1,79.16,79.38-.19,44.71-35.45,79.37-80.55,79.18-43.8-.18-78.45-35.52-78.3-79.85ZM938.49,145.23c-19.96.06-33.72,14.25-33.7,34.75.02,20.45,13.81,34.7,33.72,34.85,19.83.15,34.09-14.56,34.04-35.11-.05-20.25-14.18-34.55-34.06-34.49Z"/>
  <path class="cls-1" d="M1523.68,117.38c15.38-15.39,33.1-18.71,51.93-15.71,24.63,3.92,41.1,21.62,45.25,46.9.62,3.76,1.03,7.61,1.04,11.42.09,29.84-.03,59.69.15,89.53.03,4.31-1.1,5.89-5.56,5.79-11.49-.25-22.99-.25-34.49,0-4.46.1-5.58-1.47-5.55-5.78.18-26.51.18-53.02.04-79.53-.05-10.37-3-19.48-13.13-24.55-18.42-9.22-38.82,2.15-39.35,22.71-.69,26.32-.27,52.68-.33,79.02q-.02,8.05-8.26,8.05c-10.83,0-21.66-.1-32.49.05-3.77.05-5.28-1.1-5.27-5.14.12-46.68.12-93.36,0-140.05-.01-4.33,1.63-5.31,5.58-5.24,11.49.21,23,.26,34.49-.02,4.49-.11,6.58,1.12,5.99,5.83-.22,1.75-.04,3.55-.04,6.74Z"/>
  <path class="cls-1" d="M1088.19,145.77c0,34.5-.1,69.01.12,103.51.03,4.98-1.54,6.18-6.23,6.05-11.32-.31-22.66-.27-33.98-.02-4.45.1-5.6-1.45-5.59-5.78.12-69.34.12-138.68.01-208.03,0-4.07,1.12-5.57,5.33-5.49,11.82.23,23.66.25,35.48-.01,4.16-.09,4.94,1.52,4.93,5.25-.11,34.84-.07,69.68-.07,104.51Z"/>
</svg>